<?xml version="1.0" encoding="UTF-8"?>
<svg version="1.1" xmlns="http://www.w3.org/2000/svg" width="512" height="512">
<path d="M0 0 C1.85796948 -0.00461485 3.71593529 -0.01097167 5.57389355 -0.01890898 C10.65442257 -0.03554515 15.7346495 -0.02738193 20.81517935 -0.0149641 C26.30402221 -0.00589252 31.79281408 -0.0198938 37.28164673 -0.03088379 C48.02439246 -0.04865107 58.76702627 -0.04483697 69.50977635 -0.03323323 C78.2422345 -0.02419215 86.97466132 -0.02297783 95.7071228 -0.02732849 C96.95094481 -0.02794142 98.19476681 -0.02855436 99.47628039 -0.02918586 C102.00324322 -0.03046479 104.53020603 -0.03176164 107.05716884 -0.03307623 C130.06619019 -0.04415192 153.07516202 -0.03267463 176.08417122 -0.01170584 C197.07185317 0.00727545 218.05943803 0.00557689 239.04711914 -0.0135498 C262.6474587 -0.0349858 286.24775694 -0.04337819 309.84810734 -0.03110075 C312.36566733 -0.02982658 314.88322734 -0.0285691 317.40078735 -0.02732849 C319.25871919 -0.02640284 319.25871919 -0.02640284 321.154185 -0.02545848 C329.87407403 -0.02200777 338.59392857 -0.02782795 347.31381226 -0.0372467 C357.9434197 -0.04847608 368.57290902 -0.04540679 379.20250297 -0.02412373 C384.62375243 -0.01362607 390.04480509 -0.00946972 395.46605301 -0.02272034 C400.43287476 -0.03467646 405.39931805 -0.02802853 410.36610568 -0.00681013 C412.15867701 -0.00235772 413.9512806 -0.00457958 415.74383104 -0.01431328 C429.16371376 -0.08157025 440.69958268 1.02141105 451.29223633 10.16418457 C460.46112217 19.66562067 462.85913728 29.00228931 462.82138062 41.75372314 C462.82591173 42.87900335 462.83044284 44.00428355 462.83511126 45.16366315 C462.84776121 48.93048038 462.84613447 52.69715314 462.84448242 56.46398926 C462.84938141 59.16635685 462.85721632 61.86871434 462.86483765 64.57107544 C462.88142639 71.14781855 462.88694624 77.72452581 462.8880624 84.3012881 C462.88901393 89.64952571 462.89312946 94.99775153 462.89946365 100.34598541 C462.91707063 115.52206991 462.92630343 130.69812616 462.92480271 145.87422094 C462.92468284 147.10056544 462.92468284 147.10056544 462.92456055 148.35168457 C462.92447879 149.17025032 462.92439702 149.98881607 462.92431279 150.83218685 C462.92350014 164.09367173 462.94263367 177.35504296 462.97083728 190.61649498 C462.9995937 204.24585736 463.01337604 217.87516437 463.01164973 231.50455785 C463.01098676 239.15134943 463.01643822 246.79802188 463.03800583 254.44478607 C463.05625403 260.95620163 463.06053527 267.46744406 463.04698698 273.97887418 C463.04047526 277.29786885 463.04246509 280.6162619 463.05769348 283.9352684 C463.07316664 287.54187697 463.06382274 291.147621 463.0484314 294.75421143 C463.05871852 295.79129706 463.06900565 296.8283827 463.07960451 297.89689517 C462.97972502 308.52817773 459.73316677 317.2051222 452.82348633 325.28137207 C441.5720265 336.31980942 428.2774429 336.94974141 413.46194458 336.89561462 C411.60585326 336.89978992 409.7497645 336.90526851 407.89368045 336.91193444 C402.80449211 336.92638202 397.71546581 336.92214642 392.62626863 336.91476762 C387.13330711 336.91003657 381.64038068 336.92254526 376.14743042 336.93278503 C365.3905918 336.94997963 354.63381159 336.95081166 343.8769628 336.94557213 C335.13346269 336.9415304 326.38997984 336.94297403 317.64648056 336.94832039 C316.40196336 336.94906881 315.15744617 336.94981723 313.87521633 336.95058833 C311.34696317 336.95211981 308.81871002 336.95365816 306.29045688 336.9552033 C289.31582424 336.96503172 272.34119786 336.96919618 255.3665638 336.96157742 C254.37129044 336.96113166 254.37129044 336.96113166 253.35591055 336.96067689 C247.96799289 336.95822805 242.5800753 336.95561642 237.19215772 336.95299276 C216.17812362 336.94289129 195.16416944 336.95124492 174.15014648 336.9744873 C150.52933315 337.00057077 126.90855594 337.0133554 103.28772533 337.00629956 C90.78514619 337.00280616 78.28263267 337.0050474 65.78006363 337.02255058 C55.13681954 337.037266 44.49368728 337.03791656 33.8504454 337.02047967 C28.42123568 337.01196192 22.99222578 337.00983924 17.56302643 337.02513123 C12.58997582 337.0389649 7.61729648 337.03423191 2.64426742 337.01489199 C0.8482568 337.01112765 -0.94778348 337.01406644 -2.74376772 337.02450364 C-16.03382881 337.09622654 -28.07810928 335.68175697 -38.44604492 326.50793457 C-47.12493747 316.71948133 -49.90818098 307.90803889 -49.83372498 295.02163696 C-49.83911051 293.89464791 -49.84449605 292.76765886 -49.85004479 291.60651863 C-49.86430469 287.84584303 -49.85722524 284.08552039 -49.85009766 280.3248291 C-49.85416034 277.6221628 -49.8626667 274.9195143 -49.87089539 272.21685791 C-49.888055 265.6470524 -49.88892928 259.07734266 -49.88368248 252.50752057 C-49.87963409 247.16504695 -49.88109228 241.82260153 -49.88643074 236.48012924 C-49.88717916 235.7185249 -49.88792758 234.95692056 -49.88869869 234.1722373 C-49.89023023 232.62482214 -49.89176858 231.07740699 -49.89331365 229.52999185 C-49.90702854 215.03205303 -49.90160823 200.53416824 -49.89012844 186.03623067 C-49.8801981 172.78780108 -49.89313505 159.53951119 -49.91706263 146.29110314 C-49.94147573 132.67071111 -49.95105602 119.05038408 -49.94440991 105.42997062 C-49.94092246 97.78992327 -49.94311824 90.1499833 -49.96066093 82.50995255 C-49.97541065 76.00589572 -49.97598241 69.50202191 -49.95859002 62.99796857 C-49.95009988 59.68301752 -49.95006413 56.36866019 -49.96324158 53.05368423 C-49.97646472 49.45154996 -49.96489064 45.85029633 -49.94725037 42.24819946 C-49.95685537 41.21247807 -49.96646038 40.17675667 -49.97635645 39.10964978 C-49.85612597 27.13144634 -45.66154476 18.113164 -37.44604492 9.50793457 C-27.26216363 -0.31481618 -13.19353167 -0.07164203 0 0 Z " fill="#FE4B55" transform="translate(49.446044921875,87.4920654296875)"/>
<path d="M0 0 C1.85796948 -0.00461485 3.71593529 -0.01097167 5.57389355 -0.01890898 C10.65442257 -0.03554515 15.7346495 -0.02738193 20.81517935 -0.0149641 C26.30402221 -0.00589252 31.79281408 -0.0198938 37.28164673 -0.03088379 C48.02439246 -0.04865107 58.76702627 -0.04483697 69.50977635 -0.03323323 C78.2422345 -0.02419215 86.97466132 -0.02297783 95.7071228 -0.02732849 C96.95094481 -0.02794142 98.19476681 -0.02855436 99.47628039 -0.02918586 C102.00324322 -0.03046479 104.53020603 -0.03176164 107.05716884 -0.03307623 C130.06619019 -0.04415192 153.07516202 -0.03267463 176.08417122 -0.01170584 C197.07185317 0.00727545 218.05943803 0.00557689 239.04711914 -0.0135498 C262.6474587 -0.0349858 286.24775694 -0.04337819 309.84810734 -0.03110075 C312.36566733 -0.02982658 314.88322734 -0.0285691 317.40078735 -0.02732849 C319.25871919 -0.02640284 319.25871919 -0.02640284 321.154185 -0.02545848 C329.87407403 -0.02200777 338.59392857 -0.02782795 347.31381226 -0.0372467 C357.9434197 -0.04847608 368.57290902 -0.04540679 379.20250297 -0.02412373 C384.62375243 -0.01362607 390.04480509 -0.00946972 395.46605301 -0.02272034 C400.43287476 -0.03467646 405.39931805 -0.02802853 410.36610568 -0.00681013 C412.15867701 -0.00235772 413.9512806 -0.00457958 415.74383104 -0.01431328 C429.16371376 -0.08157025 440.69958268 1.02141105 451.29223633 10.16418457 C476.28979608 36.06839156 462.55395508 83.97153763 462.55395508 112.50793457 C293.59395508 112.50793457 124.63395508 112.50793457 -49.44604492 112.50793457 C-49.44604492 22.07719453 -49.44604492 22.07719453 -37.44604492 9.50793457 C-27.26216363 -0.31481618 -13.19353167 -0.07164203 0 0 Z " fill="#454554" transform="translate(49.446044921875,87.4920654296875)"/>
<path d="M0 0 C168.96 0 337.92 0 512 0 C512 89.40016234 512 89.40016234 502.26953125 100.7734375 C491.01807142 111.81187485 477.72348782 112.44180684 462.9079895 112.38768005 C461.05189818 112.39185535 459.19580942 112.39733394 457.33972538 112.40399987 C452.25053703 112.41844745 447.16151073 112.41421185 442.07231355 112.40683305 C436.57935203 112.402102 431.0864256 112.41461069 425.59347534 112.42485046 C414.83663673 112.44204505 404.07985651 112.44287709 393.32300772 112.43763756 C384.57950761 112.43359583 375.83602476 112.43503946 367.09252548 112.44038582 C365.84800829 112.44113424 364.60349109 112.44188266 363.32126125 112.44265376 C360.79300809 112.44418524 358.26475494 112.44572359 355.7365018 112.44726873 C338.76186916 112.45709715 321.78724278 112.46126161 304.81260872 112.45364285 C303.81733536 112.45319709 303.81733536 112.45319709 302.80195548 112.45274232 C297.41403781 112.45029348 292.02612022 112.44768185 286.63820264 112.44505819 C265.62416854 112.43495672 244.61021436 112.44331035 223.59619141 112.46655273 C199.97537807 112.4926362 176.35460086 112.50542083 152.73377025 112.49836498 C140.23119111 112.49487159 127.72867759 112.49711283 115.22610855 112.51461601 C104.58286447 112.52933143 93.9397322 112.52998199 83.29649033 112.5125451 C77.8672806 112.50402735 72.4382707 112.50190467 67.00907135 112.51719666 C62.03602075 112.53103033 57.0633414 112.52629734 52.09031235 112.50695742 C50.29430172 112.50319308 48.49826145 112.50613187 46.7022772 112.51656907 C33.41221612 112.58829197 21.36793564 111.17382239 11 102 C-13.23553624 74.66605019 0 33.76268366 0 0 Z " fill="#FFE159" transform="translate(0,312)"/>
</svg>
