<?xml version="1.0" encoding="UTF-8"?>
<svg version="1.1" xmlns="http://www.w3.org/2000/svg" width="512" height="512">
<path d="M0 0 C168.96 0 337.92 0 512 0 C512 6.5882445 511.9779116 12.86836633 511.36248112 19.37461376 C511.25909553 20.53224183 511.25909553 20.53224183 511.15362135 21.71325633 C510.92382835 24.27284148 510.6870336 26.83172726 510.45021057 29.39067078 C510.28138454 31.25470964 510.11299365 33.11878796 509.9449982 34.98290187 C509.48391597 40.08512597 509.01667522 45.18676989 508.54839647 50.28833783 C508.043761 55.79790715 507.54486778 61.30799681 507.04525757 66.81802368 C506.06641574 77.6033508 505.08231782 88.38819216 504.09647603 99.17288145 C502.94859612 111.7325922 501.80610508 124.29279138 500.66387974 136.85301743 C498.62585679 159.26183247 496.5832175 181.67022432 494.5378418 204.07836914 C492.55304419 225.82288583 490.57109383 247.56765939 488.5925293 269.31274414 C488.53155607 269.98285206 488.47058284 270.65295998 488.40776194 271.34337421 C488.10064523 274.71865295 487.7935329 278.09393209 487.48642158 281.46921133 C487.39551305 282.46833145 487.39551305 282.46833145 487.30276799 283.48763581 C487.18055663 284.83079104 487.05834623 286.17394635 486.93613679 287.51710176 C484.98952029 308.91141581 483.0406807 330.3055274 481.09134616 351.69959396 C480.52092366 357.96007527 479.95059579 364.22056518 479.38048673 370.48107505 C478.18180561 383.6439056 476.98238985 396.80666834 475.78053994 409.96920999 C475.2835682 415.41210905 474.78700631 420.85504462 474.29159737 426.29808617 C473.83812734 431.28012843 473.383406 436.26205483 472.9276787 441.2438911 C472.76299742 443.04647664 472.59876665 444.8491034 472.435031 446.65177508 C472.21238151 449.10226851 471.98807641 451.55260504 471.76336002 454.00290966 C471.70020887 454.70230902 471.63705772 455.40170839 471.5719929 456.12230167 C471.14398058 460.76337518 470.59719942 465.37839308 470 470 C463.22400963 471.3700455 456.44796164 472.73980575 449.671875 474.109375 C448.60870119 474.32426197 447.54552738 474.53914894 446.45013618 474.76054764 C433.29899378 477.41843533 420.14737624 480.07395151 406.99487305 482.72509766 C405.75865424 482.97428766 404.52243544 483.22347767 403.24875546 483.48021889 C398.17204191 484.50351035 393.09531785 485.52674954 388.01854515 486.54974747 C372.86139195 489.60412368 357.70573431 492.66565654 342.55304146 495.74208832 C333.27063431 497.62640252 323.98692264 499.50418853 314.70219231 501.37702179 C309.22689364 502.48176955 303.75234621 503.58997936 298.27941895 504.7064209 C293.14596273 505.75354535 288.01075845 506.79161591 282.87408257 507.82282639 C281.00154091 508.2004184 279.12966117 508.5813111 277.25853157 508.96583939 C274.70247878 509.49063417 272.14426953 510.0033086 269.58520508 510.51318359 C268.49302485 510.74193491 268.49302485 510.74193491 267.37878036 510.97530746 C258.77377636 512.65881248 250.58799371 512.22294593 242.04177856 510.45021057 C241.19892835 510.28349049 240.35607813 510.11677041 239.48768699 509.9449982 C236.69317543 509.38982727 233.90161781 508.82105653 231.10986328 508.25219727 C229.09536422 507.84906047 227.08069572 507.44676959 225.06587219 507.04525757 C219.6162603 505.95675905 214.16910119 504.85641674 208.72232294 503.75383878 C203.0174062 502.60106591 197.31032865 501.45909114 191.60348511 500.31590271 C182.02768228 498.39615174 172.45329108 496.4694971 162.87988281 494.5378418 C149.37248229 491.81241725 135.86269606 489.09897451 122.3523562 486.38816369 C104.26077904 482.75755676 86.16993468 479.12325394 68.08179283 475.47556686 C66.12265844 475.08059474 64.16346167 474.68593187 62.20419884 474.29159737 C59.53472265 473.7542258 56.8654876 473.21567292 54.19631958 472.67677307 C53.41714774 472.52015703 52.6379759 472.36354099 51.8351928 472.20217901 C48.53668369 471.53495949 45.26045227 470.83272989 42 470 C37.10516411 419.28878003 32.45322252 368.55608441 27.83149964 317.81935441 C27.33856172 312.40854861 26.84535647 306.99776718 26.3521843 301.58698273 C24.7090094 283.55797957 23.06642679 265.52892262 21.42576027 247.49969101 C21.00601175 242.88716347 20.58626194 238.27463605 20.16650391 233.66210938 C20.06223478 232.51633794 19.95796566 231.3705665 19.85053687 230.19007471 C18.14720451 211.47413507 16.43955693 192.75859169 14.73019226 174.04320213 C12.96346956 154.69906976 11.20047121 135.35460083 9.44116437 116.00979257 C8.45779582 105.19796995 7.47282429 94.38629878 6.48366165 83.57500458 C5.64565291 74.41565512 4.81101969 65.25600605 3.98080833 56.0959464 C3.55797109 51.43174826 3.13354165 46.76770974 2.70476532 42.1040535 C2.31213481 37.833129 1.92412494 33.56181025 1.53971712 29.29013804 C1.40030999 27.74995515 1.2592435 26.20992131 1.11630102 24.67006251 C0.92140154 22.56777304 0.73272312 20.46500828 0.54546547 18.36202621 C0.43935845 17.19739971 0.33325143 16.0327732 0.22392905 14.83285499 C-0.06447483 9.8964242 0 4.9448484 0 0 Z M192 86 C192 179.39 192 272.78 192 369 C182.43 367.02 172.86 365.04 163 363 C162.34 363 161.68 363 161 363 C160.9498877 362.23034912 160.89977539 361.46069824 160.84814453 360.66772461 C160.61225634 357.09062199 160.36865123 353.51408192 160.125 349.9375 C160.04636719 348.72771484 159.96773437 347.51792969 159.88671875 346.27148438 C159.80292969 345.05654297 159.71914062 343.84160156 159.6328125 342.58984375 C159.55949707 341.49534912 159.48618164 340.40085449 159.41064453 339.27319336 C158.79131662 332.8284273 157.85568815 326.41766113 157 320 C143.14 320 129.28 320 115 320 C117.31 345.74 119.62 371.48 122 398 C139.48010674 401.50766818 139.48010674 401.50766818 156.9609375 405.01171875 C164.09755553 406.44142744 171.23408946 407.8715467 178.37011719 409.30419922 C184.12749444 410.46004148 189.88525257 411.61396869 195.6432724 412.76660538 C197.8328678 413.20525983 200.02232837 413.64458786 202.21164703 414.08462143 C205.29340592 414.70390425 208.37564873 415.32072416 211.45800781 415.93701172 C212.34993835 416.11683594 213.2418689 416.29666016 214.16082764 416.48193359 C220.76093583 417.79772499 227.35182096 418.89197016 234 420 C234 309.78 234 199.56 234 86 C220.14 86 206.28 86 192 86 Z M278 86 C278 149.03 278 212.06 278 277 C304.73 277 331.46 277 359 277 C358.67 277.99 358.34 278.98 358 280 C357.70968806 282.43951771 357.46013128 284.86754806 357.24389648 287.3137207 C357.14126495 288.42645859 357.14126495 288.42645859 357.03656006 289.56167603 C356.81115839 292.01606563 356.5910001 294.47089364 356.37109375 296.92578125 C356.21581838 298.63350038 356.06030251 300.34119765 355.90455627 302.0488739 C355.57869243 305.63060541 355.25534818 309.21255287 354.93383789 312.79467773 C354.52230518 317.37818169 354.10518813 321.96115609 353.68624783 326.54398823 C353.36422317 330.07231985 353.04486561 333.60088891 352.72633553 337.12953758 C352.57358218 338.81883675 352.42007975 340.50806837 352.2658062 342.19722939 C352.05011789 344.56395452 351.83794839 346.93096988 351.62670898 349.2980957 C351.56282486 349.99181778 351.49894073 350.68553986 351.43312073 351.40028381 C351.09114645 355.27990852 350.93943924 359.10587458 351 363 C350.41774658 363.1043335 349.83549316 363.20866699 349.2355957 363.31616211 C333.78098253 366.10049824 318.36598369 369.07439432 302.96420288 372.13626099 C300.90019254 372.54632265 298.83592055 372.95506951 296.77139282 373.36251831 C293.84418383 373.94083123 290.9180559 374.52432229 287.9921875 375.109375 C287.09859024 375.28523636 286.20499298 375.46109772 285.28431702 375.64228821 C281.31846251 376.12722792 281.31846251 376.12722792 278 378 C277.91125865 381.10251201 277.88481545 384.1826812 277.90234375 387.28515625 C277.9037587 388.21597519 277.90517365 389.14679413 277.90663147 390.1058197 C277.91224828 393.09141191 277.9248036 396.07693029 277.9375 399.0625 C277.94251284 401.08137913 277.94707612 403.10025943 277.95117188 405.11914062 C277.96222317 410.07945572 277.97949905 415.03971532 278 420 C301.05302203 416.07839122 323.95160992 411.44888235 346.86181641 406.77612305 C351.74331982 405.78125367 356.62560341 404.79022753 361.5078125 403.79882812 C371.00595332 401.86953673 380.50325678 399.9361584 390 398 C391.83092716 378.22449485 393.65661561 358.44851269 395.47612 338.6719532 C396.32112488 329.48875419 397.16782395 320.30571736 398.01855469 311.12304688 C398.76030458 303.11665335 399.49883167 295.1099701 400.23353863 287.10292709 C400.62243726 282.86582293 401.01291532 278.6288781 401.40725708 274.39227676 C401.77892604 270.3987074 402.14626073 266.40476225 402.51037979 262.41049767 C402.64423841 260.95034883 402.77963386 259.49033987 402.91674423 258.03049278 C403.10491808 256.02439522 403.2868266 254.017713 403.46850586 252.01101685 C403.57174667 250.89196016 403.67498749 249.77290348 403.78135681 248.61993599 C404.05510679 244.08763206 404 239.54056361 404 235 C376.28 235 348.56 235 320 235 C320 199.69 320 164.38 320 128 C351.02 128 382.04 128 414 128 C415.85866449 114.06001635 416.96111672 100.02492422 418 86 C371.8 86 325.6 86 278 86 Z " fill="#000000" transform="translate(0,0)"/>
</svg>
